<svg width="58" height="58" viewBox="0 0 58 58" fill="none" xmlns="http://www.w3.org/2000/svg">
<circle cx="29" cy="29" r="29" fill="#D9D9D9"/>
<path d="M13 39.5V14L24.6364 38M45 39.5V26.75V14L40.5 23.5L36.5 31.5L33.3636 38M24.6364 38L29 47L33.3636 38M24.6364 38H33.3636" stroke="#282828" stroke-width="2" stroke-linecap="round" stroke-linejoin="round"/>
<path d="M34.7222 32C39.8333 32 40 28.625 40 23L29 23C29 28.25 29 32 34.7222 32Z" fill="#D9D9D9"/>
<path d="M40 23L41 23C41 22.7348 40.8946 22.4804 40.7071 22.2929C40.5196 22.1054 40.2652 22 40 22L40 23ZM20 22C19.4477 22 19 22.4477 19 23C19 23.5523 19.4477 24 20 24L20 22ZM39 23C39 24.4104 38.9891 25.6349 38.8978 26.6934C38.8062 27.7559 38.6384 28.5794 38.3624 29.2067C38.0974 29.8091 37.7359 30.2252 37.2208 30.5087C36.6841 30.8042 35.8994 31 34.7222 31L34.7222 33C36.1006 33 37.2534 32.7739 38.1854 32.2608C39.1391 31.7357 39.7776 30.9565 40.1931 30.0121C40.5977 29.0924 40.791 28.0175 40.8904 26.8652C40.9901 25.7088 41 24.4021 41 23L39 23ZM20 24L29 24L29 22L20 22L20 24ZM29 24L40 24L40 22L29 22L29 24ZM34.7222 31C33.3915 31 32.4987 30.7806 31.8884 30.4517C31.3003 30.1348 30.9063 29.6802 30.6276 29.0593C30.3376 28.4131 30.1716 27.5822 30.0861 26.5393C30.0007 25.4984 30 24.3234 30 23L28 23C28 24.3016 27.9993 25.5641 28.0928 26.7029C28.186 27.8396 28.3777 28.9307 28.8029 29.8782C29.2396 30.851 29.9184 31.6621 30.9397 32.2124C31.9388 32.7507 33.1918 33 34.7222 33L34.7222 31Z" fill="#282828"/>
<path d="M23.2778 32C18.1667 32 18 28.625 18 23L29 23C29 28.25 29 32 23.2778 32Z" fill="#D9D9D9"/>
<path d="M18 23L17 23C17 22.7348 17.1054 22.4804 17.2929 22.2929C17.4804 22.1054 17.7348 22 18 22L18 23ZM38 22C38.5523 22 39 22.4477 39 23C39 23.5523 38.5523 24 38 24L38 22ZM19 23C19 24.4104 19.0109 25.6349 19.1022 26.6934C19.1938 27.7559 19.3616 28.5794 19.6376 29.2067C19.9026 29.8091 20.2641 30.2252 20.7792 30.5087C21.3159 30.8042 22.1006 31 23.2778 31L23.2778 33C21.8994 33 20.7466 32.7739 19.8146 32.2608C18.8609 31.7357 18.2224 30.9565 17.8069 30.0121C17.4023 29.0924 17.209 28.0175 17.1096 26.8652C17.0099 25.7088 17 24.4021 17 23L19 23ZM38 24L29 24L29 22L38 22L38 24ZM29 24L18 24L18 22L29 22L29 24ZM23.2778 31C24.6085 31 25.5013 30.7806 26.1116 30.4517C26.6997 30.1348 27.0937 29.6802 27.3724 29.0593C27.6624 28.4131 27.8284 27.5822 27.9139 26.5393C27.9993 25.4984 28 24.3234 28 23L30 23C30 24.3016 30.0007 25.5641 29.9072 26.7029C29.814 27.8396 29.6223 28.9307 29.1971 29.8782C28.7604 30.851 28.0816 31.6621 27.0603 32.2124C26.0612 32.7507 24.8082 33 23.2778 33L23.2778 31Z" fill="#282828"/>
<circle cx="25" cy="28" r="2" fill="#282828"/>
<circle cx="36" cy="28" r="2" fill="#282828"/>
<path d="M21 39L17 38M23 43H18M25 46.5L21 48.5" stroke="#282828" stroke-width="2" stroke-linecap="round"/>
<path d="M37 39L41 38M35 43H40M33 46.5L37 48.5" stroke="#282828" stroke-width="2" stroke-linecap="round"/>
<path d="M40.4866 16.1632L36.7433 17.6799L33 19.1965" stroke="#282828" stroke-width="2" stroke-linecap="round"/>
<path d="M18 19.7802L22.0388 19.799L26.0777 19.8177" stroke="#282828" stroke-width="2" stroke-linecap="round"/>
</svg>
