<svg width="71" height="86" fill="none" xmlns="http://www.w3.org/2000/svg"><path d="M14.5392 56.8755l2.0749-46.1997 6.5268 37.3287 7.7112 30.1459-16.3129-21.2749z" fill="#93e9ff"/><path d="M49.8787 76.5637c-8.069-7.9601-24.7494-23.5559-25.7085-24.5117l6.6795 26.101 19.029-1.5893z" fill="#60c4dc"/><path d="M49.8713 76.5597L36.0181 50.3018l27.4093-3.2596-13.5561 29.5175z" fill="#3998b6"/><path d="M38.8256 19.1133l-2.8101 31.1846 27.4093-3.2513-24.5992-27.9333z" fill="#0a5669"/><path d="M38.8192 19.1188l-22.2024-8.4483 6.5116 37.2848 1.0418 4.106L49.876 76.5645 36.0159 50.3078l2.8033-31.189z" fill="#60c4dc"/><path d="M38.8212 19.1153L23.1274 47.8879l-6.5127-37.2102 22.2065 8.4376z" fill="#60c4dc"/></svg>