<svg width="75" height="75" viewBox="0 0 75 75" fill="none" xmlns="http://www.w3.org/2000/svg">
<path d="M52.4214 34.033C52.4214 32.8636 53.1683 29.6064 54.1716 27.9742C54.7602 27.0165 55.9417 25.9885 57.6838 27.0165C59.4259 28.0445 59.117 31.8598 56.8951 35.0436C54.5976 38.3356 55.2038 41.6022 56.7297 43.0691C58.4736 44.7456 61.6904 44.6342 63.5309 43.3884C65.3713 42.1425 66.6825 38.7319 65.8697 37.5413" stroke="#3998B6" stroke-width="3" stroke-linecap="round"/>
<path d="M15 49.8202V20L28.6078 48.066M52.4214 49.8202V34.9101V20L47.159 31.1095L42.4813 40.4648L38.8136 48.066M28.6078 48.066L33.7107 58.5908L38.8136 48.066M28.6078 48.066H38.8136" stroke="#3998B6" stroke-width="3" stroke-linecap="round" stroke-linejoin="round"/>
<path d="M40.4024 41.0495C46.3794 41.0495 46.5743 37.1027 46.5743 30.5247L33.7107 30.5248C33.7107 36.6642 33.7107 41.0495 40.4024 41.0495Z" fill="white"/>
<path d="M46.5743 30.5247L48.0743 30.5247C48.0743 30.1269 47.9163 29.7454 47.635 29.4641C47.3537 29.1828 46.9721 29.0247 46.5743 29.0247L46.5743 30.5247ZM23.1859 29.0248C22.3575 29.0248 21.6859 29.6963 21.6859 30.5248C21.6859 31.3532 22.3575 32.0248 23.1859 32.0248L23.1859 29.0248ZM45.0743 30.5247C45.0743 32.1754 45.0613 33.5939 44.956 34.8155C44.8501 36.0432 44.6582 36.9646 44.3567 37.6498C44.0716 38.2978 43.6946 38.7244 43.1649 39.016C42.6026 39.3256 41.7457 39.5495 40.4024 39.5495L40.4024 42.5495C42.0475 42.5495 43.4564 42.2801 44.6117 41.6441C45.7995 40.9901 46.592 40.0188 47.1027 38.8579C47.5971 37.7342 47.8274 36.4356 47.9449 35.0732C48.0629 33.7047 48.0743 32.1631 48.0743 30.5247L45.0743 30.5247ZM23.1859 32.0248L33.7107 32.0248L33.7107 29.0248L23.1859 29.0248L23.1859 32.0248ZM33.7107 32.0248L46.5743 32.0247L46.5743 29.0247L33.7107 29.0248L33.7107 32.0248ZM40.4024 39.5495C38.8792 39.5495 37.8947 39.2978 37.2453 38.9479C36.6292 38.6159 36.2154 38.1432 35.9157 37.4752C35.5988 36.7693 35.409 35.8408 35.3102 34.6367C35.2117 33.4355 35.2107 32.076 35.2107 30.5248L32.2107 30.5248C32.2107 32.0433 32.2097 33.5342 32.3203 34.882C32.4306 36.2269 32.659 37.5458 33.1787 38.7036C33.7154 39.8994 34.5563 40.9068 35.8222 41.5889C37.0548 42.253 38.5797 42.5495 40.4024 42.5495L40.4024 39.5495Z" fill="#3998B6"/>
<path d="M27.019 41.0495C21.042 41.0495 20.8471 37.1027 20.8471 30.5247L33.7107 30.5248C33.7107 36.6642 33.7107 41.0495 27.019 41.0495Z" fill="white"/>
<path d="M20.8471 30.5247L19.3471 30.5247C19.3471 30.1269 19.5051 29.7454 19.7864 29.4641C20.0677 29.1828 20.4493 29.0247 20.8471 29.0247L20.8471 30.5247ZM27.019 41.0495L27.019 39.5495L27.019 39.5495L27.019 41.0495ZM44.2355 29.0248C45.0639 29.0248 45.7355 29.6963 45.7355 30.5248C45.7355 31.3532 45.0639 32.0248 44.2355 32.0248L44.2355 29.0248ZM22.3471 30.5247C22.3471 32.1754 22.3601 33.5939 22.4654 34.8155C22.5713 36.0432 22.7632 36.9646 23.0647 37.6498C23.3498 38.2978 23.7268 38.7244 24.2565 39.016C24.8188 39.3256 25.6757 39.5495 27.019 39.5495L27.019 42.5495C25.3739 42.5495 23.965 42.2801 22.8097 41.6441C21.6219 40.9901 20.8294 40.0188 20.3187 38.8579C19.8243 37.7342 19.594 36.4356 19.4765 35.0732C19.3585 33.7047 19.3471 32.1631 19.3471 30.5247L22.3471 30.5247ZM44.2355 32.0248L33.7107 32.0248L33.7107 29.0248L44.2355 29.0248L44.2355 32.0248ZM33.7107 32.0248L20.8471 32.0247L20.8471 29.0247L33.7107 29.0248L33.7107 32.0248ZM27.019 39.5495C28.5422 39.5495 29.5267 39.2978 30.1761 38.9479C30.7922 38.6159 31.206 38.1432 31.5057 37.4752C31.8226 36.7693 32.0124 35.8408 32.1112 34.6367C32.2097 33.4355 32.2107 32.076 32.2107 30.5248L35.2107 30.5248C35.2107 32.0433 35.2117 33.5342 35.1011 34.882C34.9908 36.2269 34.7624 37.5458 34.2427 38.7036C33.7061 39.8994 32.8651 40.9068 31.5992 41.5889C30.3666 42.253 28.8417 42.5495 27.019 42.5495L27.019 39.5495Z" fill="#3998B6"/>
<circle cx="29.033" cy="36.3719" r="2.33884" fill="#3998B6"/>
<circle cx="41.8966" cy="36.3719" r="2.33884" fill="#3998B6"/>
<path d="M24.3554 49.2355L19.6777 48.0661M26.6942 53.9132H20.8471M29.033 58.0061L24.3554 60.345" stroke="#3998B6" stroke-width="3" stroke-linecap="round"/>
<path d="M43.066 49.2355L47.7437 48.0661M40.7272 53.9132H46.5743M38.3884 58.0061L43.066 60.345" stroke="#3998B6" stroke-width="3" stroke-linecap="round"/>
<path d="M45.9653 26.4892L41.7225 24.414L37.4797 22.3388" stroke="#3998B6" stroke-width="3" stroke-linecap="round"/>
<path d="M20.8471 25.8471L25.2324 24.093L29.6177 22.3388" stroke="#3998B6" stroke-width="3" stroke-linecap="round"/>
<circle cx="37.5" cy="37.5" r="36" stroke="#3998B6" stroke-width="3"/>
</svg>
